# xmcd
#
# Track frame offsets: 
#        150
#        9207
#        18957
#        31710
#        42975
#        72087
#        85036
#        96664
#        109614
#        123312
#        136179
#        154011
#        172972
#        189119
#        206352
#        222973
#        236592
#        251460
#
# Disc length: 3630 seconds
#
# Revision: 0
# Processed by: cddbd v1.5.2PL0 Copyright (c) Steve Scherf et al.
# Submitted via: ExactAudioCopyFreeDBPlugin 1.0
#
DISCID=d80e2c12
DTITLE=Ray Charles - Ray Charles The Best Of
DYEAR=1900
DGENRE=Blues
TTITLE0=Hit The Road Jack
TTITLE1=By Bye Love
TTITLE2=Unchain My Heart
TTITLE3=Sweet Georgia Brown
TTITLE4=What'd I Say
TTITLE5=I Got A Woman
TTITLE6=Hallelujah I Love Her So
TTITLE7=Alexander's Ragtime Band
TTITLE8=Chattanooga Choo Choo
TTITLE9=Heartbreaker
TTITLE10=Careless Love
TTITLE11=I Can't Stop Loving You
TTITLE12=Georgia On My Mind
TTITLE13=Stella By Starlight
TTITLE14=Come Rain Or Come Shine
TTITLE15=Moonlight In Vermont
TTITLE16=Goodbye (We'll Be Together Again)
TTITLE17=Ev'ry Time We Say Goodbye
EXTD=
EXTT0=
EXTT1=
EXTT2=
EXTT3=
EXTT4=
EXTT5=
EXTT6=
EXTT7=
EXTT8=
EXTT9=
EXTT10=
EXTT11=
EXTT12=
EXTT13=
EXTT14=
EXTT15=
EXTT16=
EXTT17=
PLAYORDER=
